<?xml version="1.0" encoding="utf-8"?>
<!-- Generator: Adobe Illustrator 16.0.0, SVG Export Plug-In . SVG Version: 6.00 Build 0)  -->
<!DOCTYPE svg PUBLIC "-//W3C//DTD SVG 1.1//EN" "http://www.w3.org/Graphics/SVG/1.1/DTD/svg11.dtd">
<svg version="1.1" id="Layer_1" xmlns="http://www.w3.org/2000/svg" xmlns:xlink="http://www.w3.org/1999/xlink" x="0px" y="0px"
	 width="836.766px" height="765.077px" viewBox="0 0 836.766 765.077" enable-background="new 0 0 836.766 765.077"
	 xml:space="preserve">
<g>
	<g>
		<path fill="#6D6E71" d="M116.792,628.44c0.621,0,2.024-0.021,4.211-0.059c2.187-0.035,3.955-0.061,5.307-0.061
			c5.525,0,10.215,1.906,14.071,5.719c3.856,3.813,5.785,8.41,5.785,13.788c0,3.37-0.587,6.281-1.754,8.729
			c-1.172,2.442-2.727,4.301-4.663,5.563c-1.939,1.266-3.931,2.176-5.98,2.73c-2.053,0.552-4.192,0.825-6.421,0.825
			c-2.306,0-4.534-0.018-6.688-0.057c-2.148-0.038-3.419-0.061-3.813-0.061c-1.232,0-3.718,0.042-7.45,0.117
			c-0.185-0.155-0.28-0.479-0.28-0.967c0-0.484,0.095-0.829,0.28-1.025c2.129-0.074,3.49-0.393,4.074-0.946
			c0.583-0.561,0.873-1.988,0.873-4.274v-22.925c0-2.291-0.29-3.708-0.873-4.259c-0.584-0.544-1.945-0.858-4.074-0.934
			c-0.185-0.157-0.28-0.485-0.28-0.981c0-0.499,0.095-0.846,0.28-1.044C113.226,628.402,115.692,628.44,116.792,628.44z
			 M119.296,660.699c0,1.018,0.389,1.764,1.176,2.218c0.788,0.456,2.481,0.685,5.084,0.685c2.186,0,4.126-0.22,5.809-0.661
			c1.685-0.436,3.254-1.166,4.714-2.19c1.461-1.02,2.585-2.505,3.372-4.453c0.783-1.943,1.177-4.311,1.177-7.105
			c0-2.328-0.286-4.556-0.854-6.685c-0.574-2.13-1.475-4.133-2.713-6.005c-1.232-1.868-2.958-3.354-5.178-4.454
			c-2.214-1.096-4.805-1.645-7.759-1.645c-3.22,0-4.828,0.929-4.828,2.792V660.699z"/>
		<path fill="#6D6E71" d="M233.257,646.608c0,4.804-1.19,8.892-3.566,12.263c-1.612,2.311-3.673,4.093-6.17,5.36
			c-2.504,1.267-5.321,1.897-8.451,1.897c-5.056,0-9.324-1.689-12.8-5.066c-3.479-3.375-5.219-7.83-5.219-13.364
			c0-5.074,1.316-9.41,3.938-13.003c1.612-2.205,3.604-3.933,5.976-5.167c2.366-1.237,4.96-1.853,7.768-1.853
			c5.343,0,9.765,1.707,13.27,5.127S233.257,640.821,233.257,646.608z M213.975,629.757c-1.388,0-2.732,0.332-4.032,1
			c-1.304,0.674-2.514,1.656-3.63,2.945c-1.112,1.295-2.02,3.074-2.71,5.346c-0.692,2.271-1.039,4.829-1.039,7.672
			c0,5.266,1.343,9.466,4.029,12.61c2.691,3.146,5.902,4.719,9.634,4.719c3.372,0,6.132-1.479,8.276-4.438
			c2.144-2.955,3.22-6.929,3.22-11.914c0-5.601-1.304-9.987-3.908-13.169C221.211,631.346,217.928,629.757,213.975,629.757z"/>
		<path fill="#6D6E71" d="M347.797,635.548c0-2.281-0.29-3.695-0.877-4.244c-0.583-0.547-1.94-0.858-4.074-0.93
			c-0.187-0.152-0.277-0.476-0.277-0.977c0-0.503,0.09-0.858,0.282-1.077c3.828,0.077,6.294,0.112,7.394,0.112
			c0.844,0,2.267-0.064,4.269-0.194c1.997-0.131,3.215-0.198,3.645-0.198c2.416,0,4.491,0.328,6.234,0.978
			c1.738,0.653,3.04,1.512,3.893,2.58c0.85,1.065,1.452,2.092,1.807,3.071c0.356,0.987,0.529,1.989,0.529,3.008
			c0,1.356-0.22,2.681-0.667,3.971c-0.445,1.289-1.138,2.541-2.086,3.76c-0.943,1.213-2.318,2.19-4.126,2.935
			c-1.811,0.746-3.924,1.12-6.341,1.12c-1.907,0-3.458-0.203-4.657-0.607v9.589c0,2.225,0.365,3.605,1.083,4.151
			c0.729,0.54,2.308,0.876,4.74,1.006c0.185,0.207,0.278,0.564,0.278,1.07c0,0.508-0.079,0.844-0.243,1.005
			c-3.844-0.079-6.613-0.122-8.302-0.122c-1.232,0-3.717,0.043-7.45,0.122c-0.191-0.161-0.282-0.497-0.282-1.005
			c0-0.506,0.09-0.863,0.277-1.07c2.134-0.077,3.491-0.39,4.074-0.948c0.588-0.557,0.877-1.975,0.877-4.257V635.548z
			 M352.744,633.776v13.323c0.692,0.186,2.153,0.281,4.377,0.281c2.841,0,4.98-0.696,6.407-2.092
			c1.432-1.393,2.148-3.584,2.148-6.582c0-3.305-0.73-5.563-2.186-6.773c-1.461-1.207-3.377-1.811-5.753-1.811
			C354.408,630.123,352.744,631.336,352.744,633.776z"/>
		<path fill="#6D6E71" d="M456.759,646.608c0,4.804-1.192,8.892-3.565,12.263c-1.612,2.311-3.672,4.093-6.174,5.36
			c-2.5,1.267-5.316,1.897-8.451,1.897c-5.052,0-9.32-1.689-12.796-5.066c-3.477-3.375-5.217-7.83-5.217-13.364
			c0-5.074,1.313-9.41,3.936-13.003c1.613-2.205,3.605-3.933,5.977-5.167c2.367-1.237,4.96-1.853,7.767-1.853
			c5.346,0,9.763,1.707,13.271,5.127C455.009,636.222,456.759,640.821,456.759,646.608z M437.478,629.757
			c-1.387,0-2.732,0.332-4.033,1c-1.304,0.674-2.513,1.656-3.627,2.945c-1.115,1.295-2.021,3.074-2.713,5.346
			s-1.038,4.829-1.038,7.672c0,5.266,1.343,9.466,4.031,12.61c2.689,3.146,5.898,4.719,9.632,4.719c3.372,0,6.132-1.479,8.275-4.438
			c2.144-2.955,3.22-6.929,3.22-11.914c0-5.601-1.304-9.987-3.906-13.169C444.714,631.346,441.432,629.757,437.478,629.757z"/>
		<path fill="#6D6E71" d="M515.798,658.451c0,2.256,0.299,3.659,0.893,4.202c0.592,0.539,1.942,0.857,4.059,0.948
			c0.147,0.249,0.223,0.624,0.223,1.113c0,0.492-0.061,0.815-0.18,0.962c-3.851-0.069-6.331-0.108-7.438-0.108
			c-1.231,0-3.716,0.039-7.449,0.108c-0.188-0.146-0.28-0.47-0.28-0.962c0-0.489,0.092-0.864,0.275-1.113
			c2.135-0.077,3.488-0.39,4.074-0.948c0.585-0.557,0.878-1.975,0.878-4.257v-22.848c0-2.281-0.293-3.695-0.878-4.244
			c-0.586-0.547-1.939-0.858-4.074-0.93c-0.184-0.152-0.275-0.476-0.275-0.977c0-0.503,0.092-0.858,0.28-1.077
			c3.827,0.077,6.292,0.112,7.394,0.112c0.806,0,2.101-0.064,3.89-0.194c1.782-0.131,2.892-0.198,3.32-0.198
			c2.205,0,4.067,0.176,5.595,0.525c1.527,0.347,2.884,1.096,4.065,2.248c1.981,1.927,2.973,4.346,2.973,7.254
			c0,2.635-0.793,4.787-2.384,6.453c-1.58,1.664-3.223,2.784-4.92,3.367l7.246,12.046c0.878,1.454,1.722,2.555,2.529,3.306
			c0.805,0.744,1.796,1.119,2.977,1.119c0.266,0.507,0.284,0.963,0.056,1.376c-0.544,0.265-1.345,0.394-2.417,0.394
			c-2.961,0-5.486-1.751-7.588-5.256l-6.108-9.797c-0.47-0.754-1.152-1.301-2.048-1.643c-0.896-0.336-2.457-0.506-4.687-0.506
			V658.451z M520.57,630.123c-3.182,0-4.771,1.214-4.771,3.653v13.069h2.751c3.1,0,5.487-0.626,7.149-1.878
			c1.666-1.257,2.497-3.54,2.497-6.844C528.196,632.789,525.654,630.123,520.57,630.123z"/>
		<path fill="#6D6E71" d="M604.919,658.344c0,2.306,0.323,3.733,0.968,4.286s2.172,0.875,4.586,0.971
			c0.184,0.207,0.284,0.564,0.294,1.07c0.009,0.508-0.093,0.844-0.294,1.005c-3.852-0.079-6.517-0.122-8.005-0.122
			c-1.613,0-4.313,0.043-8.094,0.122c-0.111-0.161-0.163-0.497-0.163-1.005c0-0.506,0.071-0.863,0.222-1.07
			c2.391-0.077,3.912-0.396,4.563-0.954c0.649-0.565,0.978-1.997,0.978-4.303v-22.127c0-1.874-0.205-3.291-0.607-4.256
			c-0.403-0.967-1.112-1.446-2.122-1.446h-2.811c-1.986,0-3.618,0.471-4.89,1.415c-1.275,0.948-2.177,2.565-2.7,4.852
			c-0.807,0-1.46-0.091-1.966-0.28c0.769-3.294,1.247-6.08,1.433-8.346c0-0.115,0.081-0.172,0.25-0.172
			c3.882,0.299,8.357,0.449,13.423,0.449h4.95c5.104,0,9.408-0.15,12.913-0.449c0.112,0,0.171,0.057,0.171,0.164
			c0.039,2.444,0.281,5.171,0.731,8.182c-0.432,0.189-1.077,0.285-1.94,0.285c-0.47-2.213-1.354-3.788-2.654-4.714
			c-1.296-0.924-3.074-1.386-5.337-1.386h-1.262c-0.99,0-1.677,0.484-2.063,1.463c-0.384,0.971-0.572,2.441-0.572,4.403V658.344z"/>
		<path fill="#6D6E71" d="M703.168,646.608c0,4.804-1.192,8.892-3.565,12.263c-1.613,2.311-3.672,4.093-6.171,5.36
			c-2.503,1.267-5.32,1.897-8.454,1.897c-5.052,0-9.32-1.689-12.797-5.066c-3.476-3.375-5.216-7.83-5.216-13.364
			c0-5.074,1.313-9.41,3.936-13.003c1.613-2.205,3.602-3.933,5.977-5.167c2.365-1.237,4.959-1.853,7.768-1.853
			c5.344,0,9.765,1.707,13.269,5.127C701.416,636.222,703.168,640.821,703.168,646.608z M683.886,629.757
			c-1.386,0-2.732,0.332-4.032,1c-1.304,0.674-2.514,1.656-3.627,2.945c-1.115,1.295-2.021,3.074-2.713,5.346
			s-1.041,4.829-1.041,7.672c0,5.266,1.342,9.466,4.033,12.61c2.689,3.146,5.898,4.719,9.633,4.719c3.371,0,6.131-1.479,8.275-4.438
			c2.143-2.955,3.219-6.929,3.219-11.914c0-5.601-1.303-9.987-3.91-13.169C691.124,631.346,687.84,629.757,683.886,629.757z"/>
	</g>
	<g>
		<path fill="#6D6E71" d="M116.152,469.443v12.019c0,1.328,0.033,2.419,0.09,3.277c0.066,0.847,0.284,1.825,0.668,2.935
			c0.39,1.1,0.944,1.996,1.674,2.694c1.641,1.57,3.519,2.36,5.639,2.376c1.551,0,2.878-0.241,3.988-0.736
			c1.119-0.491,1.978-1.096,2.58-1.807c0.607-0.712,1.081-1.622,1.432-2.751c0.347-1.122,0.555-2.148,0.636-3.077
			c0.071-0.919,0.113-2.015,0.113-3.287v-11.643c0-1.03-0.047-1.794-0.142-2.304c-0.09-0.522-0.336-0.922-0.749-1.202
			c-0.418-0.285-0.83-0.47-1.247-0.549c-0.413-0.077-1.167-0.155-2.229-0.246c-0.127-0.143-0.189-0.418-0.189-0.841
			c0-0.418,0.067-0.715,0.195-0.883c3.177,0.063,5.003,0.102,5.501,0.102c0.123,0,1.745-0.038,4.856-0.102
			c0.124,0.168,0.189,0.455,0.189,0.874c0,0.407-0.066,0.691-0.189,0.85c-1.143,0.121-1.916,0.246-2.314,0.393
			c-0.394,0.134-0.712,0.492-0.963,1.076c-0.247,0.589-0.37,1.528-0.37,2.832v10.794c0,2.238-0.18,4.184-0.522,5.84
			c-0.351,1.657-0.957,3.162-1.835,4.503c-0.876,1.338-2.119,2.358-3.737,3.051c-1.617,0.696-3.613,1.043-5.999,1.043
			c-1.243,0-2.442-0.17-3.6-0.497c-1.162-0.328-2.348-0.893-3.557-1.674c-1.214-0.788-2.187-1.997-2.917-3.618
			c-0.726-1.638-1.095-3.583-1.095-5.848v-13.594c0-1.868-0.228-3.036-0.678-3.506c-0.451-0.47-1.438-0.738-2.95-0.795
			c-0.123-0.143-0.18-0.418-0.18-0.841c0-0.418,0.057-0.715,0.18-0.883c3.164,0.063,5.046,0.102,5.653,0.102
			c1.177,0,3.33-0.038,6.45-0.102c0.095,0.168,0.147,0.455,0.147,0.874c0,0.407-0.061,0.691-0.185,0.85
			c-1.883,0.057-3.083,0.316-3.59,0.768C116.398,466.369,116.152,467.545,116.152,469.443z"/>
		<path fill="#6D6E71" d="M190.77,469.922c0-1.105-0.056-1.945-0.154-2.523c-0.103-0.574-0.344-1.025-0.723-1.352
			c-0.375-0.332-0.773-0.542-1.181-0.632c-0.413-0.095-1.105-0.183-2.082-0.273c-0.152-0.143-0.232-0.418-0.247-0.841
			c-0.004-0.418,0.076-0.715,0.247-0.883c3.177,0.063,4.937,0.102,5.275,0.102c0.449,0,2.218-0.038,5.319-0.102
			c0.128,0.168,0.183,0.455,0.183,0.874c0,0.407-0.054,0.691-0.183,0.85c-1.778,0.179-2.917,0.521-3.4,1.019
			c-0.496,0.492-0.734,1.755-0.734,3.762v23.171c0,1.054-0.361,1.58-1.092,1.58c-0.696,0-1.332-0.406-1.908-1.213l-16.615-20.849
			c-0.82-1.044-1.359-1.562-1.612-1.556c-0.251,0.008-0.387,0.778-0.387,2.311v14.406c0,1.111,0.055,1.944,0.155,2.523
			c0.099,0.577,0.342,1.024,0.721,1.352c0.375,0.338,0.773,0.545,1.183,0.64c0.408,0.091,1.108,0.195,2.08,0.295
			c0.129,0.171,0.19,0.464,0.199,0.886c0.004,0.424-0.057,0.697-0.199,0.829c-3.175-0.061-4.932-0.094-5.273-0.094
			c-0.451,0-2.224,0.033-5.321,0.094c-0.156-0.132-0.237-0.405-0.246-0.829c-0.005-0.422,0.076-0.715,0.246-0.886
			c1.783-0.182,2.921-0.527,3.405-1.033c0.489-0.509,0.735-1.766,0.735-3.776v-19.625c-0.158-0.688-0.583-1.349-1.288-1.979
			c-0.694-0.625-1.52-0.971-2.478-1.027c-0.156-0.143-0.232-0.418-0.232-0.841c0-0.418,0.076-0.715,0.232-0.883l6.435,0.09
			l16.31,20.951c0.217,0.279,0.455,0.596,0.715,0.948c0.251,0.354,0.446,0.605,0.574,0.759c0.138,0.161,0.271,0.312,0.413,0.473
			c0.133,0.166,0.249,0.271,0.346,0.338c0.09,0.057,0.17,0.089,0.232,0.089c0.213,0,0.332-0.479,0.351-1.421V469.922z"/>
		<path fill="#6D6E71" d="M231.617,488.281c0,1.892,0.247,3.063,0.745,3.511c0.498,0.453,1.628,0.715,3.396,0.791
			c0.123,0.171,0.189,0.464,0.199,0.886c0.004,0.424-0.062,0.697-0.199,0.829c-3.183-0.061-5.231-0.094-6.161-0.094
			c-1.022,0-3.069,0.033-6.156,0.094c-0.156-0.132-0.232-0.405-0.232-0.829c0-0.422,0.076-0.715,0.232-0.886
			c1.76-0.063,2.884-0.323,3.367-0.782c0.479-0.456,0.721-1.628,0.721-3.52v-18.867c0-1.883-0.242-3.055-0.721-3.504
			c-0.483-0.451-1.607-0.711-3.367-0.768c-0.156-0.143-0.232-0.418-0.232-0.841c0-0.418,0.076-0.715,0.232-0.883
			c3.164,0.063,5.203,0.102,6.108,0.102c1.039,0,3.102-0.038,6.208-0.102c0.123,0.168,0.189,0.455,0.199,0.874
			c0.004,0.407-0.062,0.691-0.199,0.85c-1.784,0.057-2.917,0.316-3.406,0.768c-0.488,0.449-0.735,1.621-0.735,3.504V488.281z"/>
		<path fill="#6D6E71" d="M282.882,465.142c-0.127-0.143-0.189-0.418-0.193-0.841c-0.015-0.418,0.051-0.715,0.193-0.883
			c2.988,0.063,4.714,0.102,5.182,0.102c0.244,0,1.643-0.038,4.185-0.102c0.151,0.168,0.232,0.455,0.232,0.874
			c0,0.407-0.081,0.691-0.232,0.85c-0.607,0.074-1.143,0.213-1.617,0.426c-0.472,0.209-0.844,0.407-1.114,0.597
			c-0.271,0.194-0.546,0.526-0.825,0.996c-0.28,0.47-0.47,0.82-0.57,1.053c-0.102,0.228-0.284,0.665-0.545,1.319l-9.855,24.149
			c-0.275,0.721-0.655,1.091-1.133,1.11c-0.455,0-0.815-0.376-1.096-1.11l-9.39-24.239c-0.726-1.854-1.29-3.007-1.707-3.464
			c-0.41-0.448-1.269-0.734-2.57-0.837c-0.152-0.176-0.233-0.456-0.233-0.859c0-0.412,0.062-0.696,0.189-0.864
			c2.988,0.063,4.639,0.102,4.952,0.102c0.851,0,2.774-0.038,5.762-0.102c0.119,0.168,0.183,0.455,0.183,0.874
			c0,0.407-0.064,0.691-0.183,0.85c-1.598,0.165-2.542,0.482-2.836,0.958c-0.294,0.469-0.152,1.407,0.418,2.807l7.573,19.294h0.232
			l7.505-18.99c0.605-1.295,0.752-2.269,0.434-2.917C285.505,465.649,284.523,465.263,282.882,465.142z"/>
		<path fill="#6D6E71" d="M330.535,477.107c1.93,0,3.116-0.195,3.557-0.583c0.437-0.385,0.693-1.295,0.75-2.735
			c0.127-0.158,0.383-0.233,0.772-0.233c0.384,0,0.659,0.075,0.809,0.233c-0.06,1.919-0.093,3.3-0.093,4.148
			c0,0.57,0.033,1.963,0.093,4.177c-0.15,0.177-0.42,0.271-0.799,0.271c-0.385,0-0.641-0.086-0.783-0.242
			c-0.057-0.866-0.154-1.492-0.281-1.868c-0.118-0.383-0.498-0.72-1.133-1.01c-0.63-0.295-1.598-0.438-2.893-0.438h-4.311v11.597
			c0,1.376,0.562,2.066,1.689,2.066h6.464c3.012,0,5.076-2.1,6.208-6.292c0.573-0.127,1.129-0.048,1.674,0.232
			c-0.389,2.488-0.98,5.11-1.765,7.866c-2.537-0.057-4.566-0.09-6.084-0.09h-10.213c-2.554,0.033-4.621,0.06-6.177,0.09
			c-0.123-0.132-0.184-0.405-0.184-0.829c0-0.422,0.061-0.715,0.184-0.886c1.76-0.063,2.889-0.323,3.372-0.782
			c0.498-0.456,0.74-1.628,0.74-3.52v-18.867c0-1.883-0.246-3.055-0.745-3.504c-0.5-0.451-1.639-0.711-3.414-0.768
			c-0.122-0.143-0.185-0.418-0.185-0.846c0-0.426,0.063-0.71,0.185-0.878l6.155,0.09h12.132c0.82,0,1.598-0.06,2.328-0.189
			c0.118,0,0.185,0.048,0.185,0.142c0.244,1.074,0.602,3.351,1.067,6.831c-0.512,0.256-1.032,0.337-1.584,0.242
			c-0.598-1.949-1.233-3.32-1.892-4.118c-0.664-0.791-1.816-1.183-3.452-1.183h-4.999c-0.542,0-0.956,0.202-1.252,0.601
			c-0.291,0.408-0.437,0.919-0.437,1.536v9.737H330.535z"/>
		<path fill="#6D6E71" d="M376.461,488.324c0,1.867,0.241,3.029,0.735,3.477c0.493,0.444,1.607,0.706,3.357,0.782
			c0.124,0.214,0.185,0.511,0.185,0.924c0,0.403-0.052,0.67-0.152,0.791c-3.182-0.057-5.229-0.09-6.146-0.09
			c-1.014,0-3.073,0.033-6.161,0.09c-0.156-0.121-0.232-0.388-0.232-0.791c0-0.413,0.076-0.71,0.232-0.924
			c1.76-0.063,2.884-0.323,3.368-0.782c0.479-0.456,0.725-1.628,0.725-3.52v-18.89c0-1.884-0.247-3.054-0.725-3.506
			c-0.484-0.45-1.608-0.708-3.368-0.772c-0.156-0.125-0.232-0.393-0.232-0.807c0-0.418,0.076-0.711,0.232-0.888
			c3.168,0.059,5.203,0.09,6.106,0.09c0.67,0,1.748-0.052,3.223-0.16c1.467-0.108,2.392-0.16,2.746-0.16
			c1.821,0,3.362,0.143,4.624,0.437c1.266,0.284,2.386,0.9,3.358,1.854c1.64,1.593,2.461,3.59,2.461,6
			c0,2.177-0.655,3.954-1.966,5.33c-1.306,1.375-2.667,2.305-4.071,2.786l5.994,9.958c0.717,1.204,1.418,2.114,2.085,2.735
			c0.666,0.612,1.491,0.92,2.468,0.92c0.208,0.423,0.228,0.802,0.043,1.138c-0.448,0.22-1.114,0.328-1.996,0.328
			c-2.448,0-4.54-1.445-6.274-4.339l-5.052-8.105c-0.388-0.62-0.958-1.077-1.695-1.357c-0.742-0.277-2.036-0.421-3.872-0.421
			V488.324z M380.401,464.91c-2.627,0-3.94,1-3.94,3.015v10.809h2.271c2.566,0,4.539-0.516,5.91-1.554
			c1.38-1.034,2.067-2.916,2.067-5.658C386.709,467.11,384.604,464.91,380.401,464.91z"/>
		<path fill="#6D6E71" d="M438.274,464.258c0.437,2.183,0.721,4.227,0.86,6.134c-0.229,0.163-0.751,0.259-1.557,0.275
			c-0.153-0.496-0.304-0.94-0.456-1.328c-0.147-0.396-0.327-0.812-0.546-1.239c-0.209-0.436-0.45-0.811-0.711-1.138
			c-0.252-0.323-0.561-0.642-0.916-0.948c-0.36-0.304-0.739-0.561-1.166-0.76c-0.418-0.207-0.9-0.365-1.452-0.479
			c-0.55-0.108-1.156-0.172-1.812-0.172c-1.37,0-2.579,0.547-3.627,1.643c-1.039,1.095-1.556,2.313-1.556,3.656
			c0,0.738,0.166,1.438,0.503,2.093c0.337,0.659,0.745,1.208,1.209,1.649c0.46,0.438,1.066,0.868,1.817,1.3
			c0.75,0.432,1.379,0.759,1.894,0.963c0.505,0.209,1.14,0.465,1.895,0.754c0.767,0.294,1.241,0.474,1.446,0.551
			c0.93,0.407,1.755,0.833,2.49,1.29c0.73,0.453,1.422,1.01,2.082,1.669c0.655,0.652,1.149,1.433,1.499,2.322
			c0.345,0.897,0.526,1.879,0.526,2.962c0,1.497-0.413,2.938-1.225,4.313c-0.811,1.385-1.902,2.496-3.281,3.348
			c-1.684,1.034-3.657,1.557-5.921,1.557c-1.558,0-3.194-0.185-4.915-0.55c-1.707-0.369-3.035-0.56-3.966-0.56
			c-0.467-1.987-0.768-4.392-0.911-7.21c0.495-0.264,1.013-0.303,1.552-0.132c1.034,4.487,3.899,6.73,8.636,6.73
			c1.897,0,3.365-0.498,4.392-1.49c1.029-0.995,1.542-2.443,1.542-4.338c0-0.863-0.14-1.656-0.408-2.372
			c-0.275-0.716-0.568-1.294-0.921-1.737c-0.351-0.44-0.844-0.862-1.488-1.273c-0.646-0.404-1.176-0.707-1.604-0.892
			c-0.422-0.181-1.023-0.428-1.801-0.726c-0.782-0.305-1.321-0.513-1.61-0.642c-1.445-0.597-2.654-1.229-3.621-1.887
			c-0.977-0.655-1.812-1.533-2.527-2.651c-0.692-1.109-1.051-2.357-1.051-3.743c0-2.467,0.917-4.477,2.75-6.008
			c1.848-1.544,4.062-2.311,6.647-2.311c1.815,0,3.381,0.214,4.694,0.637C436.964,463.948,437.842,464.197,438.274,464.258z"/>
		<path fill="#6D6E71" d="M475.154,488.281c0,1.892,0.249,3.063,0.747,3.511c0.493,0.453,1.621,0.715,3.39,0.791
			c0.128,0.171,0.188,0.464,0.194,0.886c0.016,0.424-0.057,0.697-0.194,0.829c-3.177-0.061-5.24-0.094-6.162-0.094
			c-1.013,0-3.065,0.033-6.158,0.094c-0.159-0.132-0.235-0.405-0.235-0.829c0-0.422,0.076-0.715,0.235-0.886
			c1.769-0.063,2.889-0.323,3.365-0.782c0.488-0.456,0.728-1.628,0.728-3.52v-18.867c0-1.883-0.239-3.055-0.728-3.504
			c-0.477-0.451-1.597-0.711-3.365-0.768c-0.159-0.143-0.235-0.418-0.235-0.841c0-0.418,0.076-0.715,0.235-0.883
			c3.162,0.063,5.201,0.102,6.116,0.102c1.031,0,3.103-0.038,6.204-0.102c0.128,0.168,0.188,0.455,0.194,0.874
			c0.016,0.407-0.057,0.691-0.194,0.85c-1.783,0.057-2.916,0.316-3.404,0.768c-0.49,0.449-0.732,1.621-0.732,3.504V488.281z"/>
		<path fill="#6D6E71" d="M512.147,463.512c0.508,0,1.674-0.012,3.48-0.047c1.81-0.031,3.27-0.047,4.392-0.047
			c4.572,0,8.446,1.577,11.63,4.729c3.191,3.149,4.785,6.949,4.785,11.398c0,2.782-0.479,5.192-1.447,7.212
			c-0.977,2.023-2.257,3.558-3.86,4.605c-1.599,1.048-3.244,1.796-4.947,2.252c-1.688,0.454-3.457,0.682-5.304,0.682
			c-1.904,0-3.744-0.013-5.531-0.042c-1.774-0.036-2.823-0.048-3.15-0.048c-1.009,0-3.067,0.029-6.162,0.09
			c-0.153-0.126-0.23-0.396-0.23-0.791c0-0.413,0.077-0.692,0.23-0.853c1.762-0.067,2.881-0.323,3.375-0.784
			c0.482-0.469,0.725-1.64,0.725-3.531v-18.952c0-1.894-0.242-3.065-0.725-3.524c-0.494-0.451-1.613-0.707-3.375-0.771
			c-0.153-0.129-0.23-0.399-0.23-0.808c0-0.412,0.077-0.696,0.23-0.864C509.202,463.482,511.241,463.512,512.147,463.512z
			 M514.215,490.182c0,0.85,0.326,1.455,0.981,1.835c0.646,0.375,2.048,0.565,4.196,0.565c1.812,0,3.415-0.182,4.809-0.537
			c1.385-0.37,2.681-0.97,3.895-1.815c1.204-0.85,2.127-2.073,2.778-3.679c0.653-1.613,0.978-3.567,0.978-5.878
			c0-1.919-0.232-3.77-0.702-5.534c-0.476-1.76-1.218-3.415-2.243-4.958c-1.021-1.55-2.452-2.77-4.282-3.685
			c-1.831-0.905-3.975-1.354-6.417-1.354c-2.659,0-3.992,0.764-3.992,2.309V490.182z"/>
		<path fill="#6D6E71" d="M568.221,490.321c-0.032,0.303-0.08,0.573-0.146,0.81c-0.057,0.238,0.031,0.433,0.275,0.593
			c0.251,0.167,0.427,0.288,0.568,0.38c0.137,0.09,0.401,0.171,0.792,0.258c0.382,0.069,0.688,0.122,0.899,0.13
			c0.221,0.016,0.52,0.044,0.908,0.092c0.132,0.171,0.187,0.464,0.187,0.886c0,0.424-0.055,0.697-0.187,0.829
			c-2.354-0.061-4.387-0.094-6.09-0.094c-0.481,0-1.9,0.033-4.248,0.094c-0.155-0.132-0.233-0.405-0.233-0.829
			c0-0.422,0.078-0.715,0.233-0.886c1.213-0.092,2.162-0.338,2.858-0.739c0.698-0.4,1.334-1.276,1.906-2.634l10.804-25.378
			c0.693,0,1.575-0.312,2.628-0.948l9.808,27.09c0.189,0.568,0.416,1.029,0.687,1.376c0.266,0.347,0.646,0.602,1.115,0.767
			c0.477,0.172,0.83,0.271,1.067,0.305c0.245,0.028,0.716,0.086,1.418,0.162c0.143,0.171,0.223,0.464,0.223,0.886
			c0,0.424-0.08,0.697-0.223,0.829c-2.363-0.061-4.174-0.094-5.449-0.094c-1.804,0-3.88,0.033-6.232,0.094
			c-0.118-0.132-0.185-0.405-0.185-0.829c0-0.422,0.066-0.715,0.185-0.886c0.19,0,0.437-0.01,0.74-0.039
			c0.295-0.014,0.525-0.037,0.698-0.053c0.16-0.008,0.364-0.036,0.625-0.07c0.257-0.028,0.442-0.056,0.567-0.09
			c0.13-0.029,0.268-0.077,0.453-0.138c0.159-0.057,0.278-0.138,0.345-0.224c0.077-0.096,0.134-0.207,0.182-0.337
			c0.052-0.126,0.064-0.269,0.052-0.422c-0.02-0.155-0.063-0.332-0.118-0.549l-2.77-7.935h-10.045c-0.574,0-0.954,0.063-1.167,0.176
			c-0.216,0.119-0.384,0.327-0.502,0.63L568.221,490.321z M573.377,480.73h8.412l-4.457-12.943h-0.305l-4.855,12.317
			c-0.048,0.095-0.066,0.181-0.048,0.257c0.016,0.076,0.048,0.131,0.09,0.179c0.044,0.055,0.123,0.091,0.229,0.121
			c0.118,0.028,0.247,0.052,0.393,0.06C572.983,480.724,573.166,480.73,573.377,480.73z"/>
		<path fill="#6D6E71" d="M624.791,463.512c0.506,0,1.674-0.012,3.48-0.047c1.812-0.031,3.268-0.047,4.389-0.047
			c4.563,0,8.439,1.577,11.625,4.729c3.198,3.149,4.782,6.949,4.782,11.398c0,2.782-0.483,5.192-1.451,7.212
			c-0.963,2.023-2.243,3.558-3.847,4.605c-1.605,1.048-3.249,1.796-4.951,2.252c-1.684,0.454-3.472,0.682-5.292,0.682
			c-1.919,0-3.757-0.013-5.54-0.042c-1.768-0.036-2.822-0.048-3.144-0.048c-1.035,0-3.077,0.029-6.166,0.09
			c-0.15-0.126-0.232-0.396-0.232-0.791c0-0.413,0.082-0.692,0.229-0.853c1.764-0.067,2.896-0.323,3.372-0.784
			c0.488-0.469,0.729-1.64,0.729-3.531v-18.952c0-1.894-0.241-3.065-0.729-3.524c-0.476-0.451-1.608-0.707-3.372-0.771
			c-0.146-0.129-0.229-0.399-0.229-0.808c0-0.412,0.082-0.696,0.232-0.864C621.844,463.482,623.874,463.512,624.791,463.512z
			 M626.862,490.182c0,0.85,0.322,1.455,0.974,1.835c0.645,0.375,2.048,0.565,4.206,0.565c1.807,0,3.404-0.182,4.795-0.537
			c1.394-0.37,2.695-0.97,3.897-1.815c1.205-0.85,2.134-2.073,2.784-3.679c0.655-1.613,0.981-3.567,0.981-5.878
			c0-1.919-0.246-3.77-0.717-5.534c-0.474-1.76-1.213-3.415-2.237-4.958c-1.02-1.55-2.448-2.77-4.289-3.685
			c-1.82-0.905-3.963-1.354-6.41-1.354c-2.648,0-3.984,0.764-3.984,2.309V490.182z"/>
		<path fill="#6D6E71" d="M687.888,477.107c1.935,0,3.129-0.195,3.562-0.583c0.441-0.385,0.688-1.295,0.754-2.735
			c0.124-0.158,0.385-0.233,0.773-0.233c0.382,0,0.65,0.075,0.807,0.233c-0.063,1.919-0.091,3.3-0.091,4.148
			c0,0.57,0.028,1.963,0.091,4.177c-0.156,0.177-0.425,0.271-0.798,0.271c-0.384,0-0.64-0.086-0.782-0.242
			c-0.066-0.866-0.156-1.492-0.278-1.868c-0.119-0.383-0.498-0.72-1.144-1.01c-0.636-0.295-1.592-0.438-2.894-0.438h-4.301v11.597
			c0,1.376,0.559,2.066,1.688,2.066h6.453c3.017,0,5.084-2.1,6.218-6.292c0.569-0.127,1.133-0.048,1.675,0.232
			c-0.389,2.488-0.973,5.11-1.769,7.866c-2.55-0.057-4.563-0.09-6.081-0.09h-10.205c-2.573,0.033-4.637,0.06-6.185,0.09
			c-0.123-0.132-0.188-0.405-0.188-0.829c0-0.422,0.065-0.715,0.188-0.886c1.753-0.063,2.881-0.323,3.365-0.782
			c0.5-0.456,0.746-1.628,0.746-3.52v-18.867c0-1.883-0.246-3.055-0.749-3.504c-0.492-0.451-1.632-0.711-3.414-0.768
			c-0.123-0.143-0.184-0.418-0.184-0.846c0-0.426,0.061-0.71,0.184-0.878l6.164,0.09h12.123c0.824,0,1.598-0.06,2.331-0.189
			c0.118,0,0.182,0.048,0.182,0.142c0.251,1.074,0.608,3.351,1.071,6.831c-0.516,0.256-1.038,0.337-1.583,0.242
			c-0.598-1.949-1.251-3.32-1.897-4.118c-0.669-0.791-1.807-1.183-3.447-1.183h-4.998c-0.545,0-0.964,0.202-1.248,0.601
			c-0.297,0.408-0.44,0.919-0.44,1.536v9.737H687.888z"/>
	</g>
	<g>
		<path fill="#007DA4" d="M121.748,597.176c-5.416,0.061-9.746,0.129-13.013,0.194c-0.323-0.288-0.484-0.876-0.484-1.76
			c0-0.885,0.161-1.511,0.484-1.872c3.717-0.134,6.093-0.683,7.113-1.656c1.019-0.966,1.527-3.442,1.527-7.422v-39.865
			c0-3.979-0.508-6.444-1.527-7.402c-1.02-0.952-3.396-1.497-7.113-1.631c-0.323-0.279-0.484-0.866-0.484-1.755
			c0-0.892,0.161-1.517,0.484-1.873c6.686,0.143,10.987,0.213,12.913,0.213c2.167,0,6.526-0.07,13.089-0.213
			c0.209,0.356,0.313,0.967,0.313,1.844c0,0.87-0.128,1.467-0.389,1.784c-3.723,0.138-6.094,0.683-7.113,1.649
			c-1.021,0.965-1.533,3.457-1.533,7.485v43.64c0,1.536,0.417,2.757,1.252,3.657c0.831,0.894,1.982,1.351,3.453,1.351h7.351
			c4.904,0,8.564-1.155,10.998-3.468c2.438-2.303,4.23-5.534,5.374-9.691c1.143-0.195,2.238-0.03,3.287,0.492
			c-0.655,5.724-1.523,11.222-2.603,16.493c-6.185-0.134-10.178-0.194-11.976-0.194H121.748z"/>
		<path fill="#007DA4" d="M192.245,544.854v25.391c0,2.804,0.066,5.108,0.194,6.914c0.132,1.808,0.604,3.873,1.428,6.198
			c0.815,2.334,1.991,4.227,3.528,5.697c3.458,3.318,7.431,4.998,11.914,5.029c3.262,0,6.073-0.525,8.427-1.564
			c2.353-1.044,4.169-2.314,5.44-3.813c1.273-1.493,2.281-3.433,3.014-5.809c0.737-2.376,1.184-4.542,1.354-6.492
			c0.161-1.954,0.242-4.274,0.242-6.938v-24.612c0-2.154-0.102-3.776-0.301-4.86c-0.193-1.092-0.724-1.94-1.587-2.539
			c-0.872-0.606-1.745-0.99-2.632-1.152c-0.878-0.16-2.447-0.337-4.709-0.54c-0.261-0.279-0.394-0.866-0.394-1.755
			c0-0.892,0.133-1.517,0.409-1.873c6.701,0.143,10.573,0.213,11.624,0.213c0.256,0,3.681-0.07,10.258-0.213
			c0.256,0.356,0.387,0.967,0.387,1.844c0,0.87-0.13,1.467-0.387,1.784c-2.423,0.265-4.055,0.54-4.884,0.834
			c-0.835,0.289-1.519,1.059-2.04,2.302c-0.527,1.23-0.785,3.219-0.785,5.956v22.805c0,4.726-0.373,8.842-1.107,12.335
			c-0.731,3.51-2.02,6.68-3.866,9.515c-1.854,2.833-4.481,4.98-7.898,6.444c-3.417,1.469-7.645,2.206-12.674,2.206
			c-2.632,0-5.164-0.352-7.612-1.053c-2.447-0.702-4.951-1.884-7.507-3.548c-2.561-1.661-4.615-4.206-6.156-7.644
			c-1.549-3.438-2.319-7.56-2.319-12.345v-28.716c0-3.941-0.477-6.408-1.427-7.399c-0.958-0.996-3.036-1.559-6.236-1.692
			c-0.259-0.279-0.387-0.866-0.387-1.755c0-0.892,0.135-1.517,0.396-1.873c6.678,0.143,10.657,0.213,11.928,0.213
			c2.489,0,7.038-0.07,13.634-0.213c0.204,0.356,0.308,0.967,0.308,1.844c0,0.87-0.128,1.467-0.394,1.784
			c-3.984,0.134-6.507,0.683-7.579,1.641C192.78,538.36,192.245,540.847,192.245,544.854z"/>
		<path fill="#007DA4" d="M296.763,533.913c0.916,4.609,1.519,8.925,1.812,12.947c-0.489,0.354-1.589,0.549-3.286,0.583
			c-0.333-1.044-0.65-1.973-0.963-2.807c-0.308-0.83-0.698-1.704-1.153-2.619c-0.459-0.91-0.958-1.708-1.493-2.395
			c-0.546-0.685-1.196-1.353-1.945-2.002c-0.754-0.654-1.574-1.194-2.461-1.611c-0.887-0.427-1.907-0.765-3.074-1.006
			c-1.162-0.241-2.432-0.365-3.809-0.365c-2.906,0-5.463,1.155-7.668,3.468c-2.201,2.319-3.301,4.889-3.301,7.724
			c0,1.565,0.356,3.045,1.072,4.425c0.716,1.385,1.57,2.542,2.547,3.477c0.979,0.931,2.262,1.846,3.846,2.756
			c1.582,0.915,2.917,1.592,3.998,2.03c1.069,0.446,2.414,0.971,4.012,1.594c1.598,0.615,2.612,1.009,3.038,1.172
			c1.96,0.846,3.715,1.753,5.261,2.713c1.551,0.962,3.012,2.132,4.396,3.516c1.384,1.392,2.438,3.027,3.17,4.916
			c0.737,1.891,1.103,3.978,1.103,6.259c0,3.174-0.86,6.212-2.576,9.119c-1.718,2.906-4.021,5.27-6.923,7.067
			c-3.562,2.191-7.735,3.286-12.515,3.286c-3.296,0-6.758-0.393-10.373-1.172c-3.623-0.777-6.417-1.17-8.384-1.17
			c-0.978-4.213-1.623-9.281-1.936-15.225c1.048-0.561,2.143-0.655,3.286-0.294c2.172,9.485,8.248,14.229,18.235,14.229
			c4.019,0,7.113-1.055,9.291-3.16c2.167-2.101,3.253-5.154,3.253-9.161c0-1.825-0.285-3.502-0.858-5.013
			c-0.569-1.513-1.226-2.737-1.961-3.665c-0.732-0.932-1.776-1.828-3.132-2.69c-1.359-0.862-2.488-1.489-3.38-1.883
			c-0.894-0.391-2.174-0.9-3.819-1.537c-1.651-0.639-2.784-1.085-3.4-1.348c-3.049-1.271-5.601-2.597-7.655-3.988
			c-2.053-1.38-3.832-3.248-5.323-5.595c-1.487-2.348-2.232-4.985-2.232-7.915c0-5.213,1.944-9.448,5.828-12.696
			c3.892-3.247,8.565-4.87,14.029-4.87c3.836,0,7.138,0.444,9.907,1.347C293.999,533.253,295.843,533.775,296.763,533.913z"/>
		<path fill="#007DA4" d="M387.14,564.07c0,8.384-2.082,15.522-6.238,21.418c-2.81,4.025-6.4,7.142-10.775,9.351
			c-4.362,2.21-9.283,3.32-14.747,3.32c-8.837,0-16.285-2.954-22.356-8.845c-6.075-5.9-9.105-13.682-9.105-23.343
			c0-8.863,2.285-16.429,6.872-22.707c2.808-3.856,6.288-6.862,10.429-9.02c4.14-2.161,8.664-3.239,13.572-3.239
			c9.329,0,17.049,2.984,23.172,8.954C384.082,545.924,387.14,553.963,387.14,564.07z M353.465,534.638
			c-2.423,0-4.771,0.59-7.043,1.755c-2.276,1.167-4.387,2.877-6.331,5.14c-1.945,2.258-3.528,5.365-4.738,9.334
			c-1.214,3.96-1.816,8.428-1.816,13.397c0,9.19,2.347,16.532,7.047,22.024c4.695,5.491,10.296,8.238,16.812,8.238
			c5.885,0,10.708-2.587,14.451-7.749c3.748-5.166,5.625-12.104,5.625-20.807c0-9.779-2.277-17.447-6.82-23.001
			C366.099,537.419,360.37,534.638,353.465,534.638z M359.112,514.753c2.879,1.348,4.954,3.077,6.232,5.202l-14.482,5.848
			c-1.865,0.82-3.27,1.209-4.218,1.175c-1.015,0-1.523-0.492-1.523-1.475c0-0.753,0.508-1.456,1.523-2.11L359.112,514.753z"/>
		<path fill="#007DA4" d="M433.512,564.681h-9.305v19.986c0,3.973,0.512,6.444,1.529,7.398c1.022,0.952,3.394,1.513,7.116,1.673
			c0.322,0.361,0.484,0.987,0.484,1.872c0,0.884-0.138,1.472-0.413,1.76c-6.72-0.146-11.05-0.217-12.985-0.217
			c-2.152,0-6.504,0.07-13.06,0.217c-0.261-0.288-0.39-0.876-0.39-1.76c0-0.885,0.129-1.511,0.39-1.872
			c3.72-0.134,6.104-0.683,7.142-1.656c1.034-0.966,1.552-3.442,1.552-7.422v-39.865c0-3.979-0.525-6.444-1.571-7.402
			c-1.053-0.952-3.452-1.497-7.213-1.631c-0.266-0.284-0.395-0.874-0.395-1.769c0-0.896,0.129-1.518,0.395-1.859l13.003,0.2h25.677
			c1.762,0,3.334-0.138,4.709-0.394c0.227,0,0.36,0.095,0.393,0.289c0.718,3.865,1.437,8.721,2.157,14.582
			c-0.883,0.323-1.915,0.493-3.09,0.493c-0.815-2.717-1.689-4.8-2.619-6.255c-0.925-1.461-2.428-2.674-4.5-3.639
			c-2.067-0.967-4.794-1.446-8.186-1.446h-6.555c-2.408,0-3.604,1.173-3.57,3.507v21.573h9.305c4.076,0,6.582-0.409,7.512-1.229
			c0.936-0.811,1.481-2.746,1.641-5.775c0.267-0.338,0.793-0.503,1.6-0.503c0.796,0,1.365,0.159,1.692,0.497
			c-0.133,4.056-0.199,6.977-0.199,8.759c0,1.187,0.066,4.079,0.199,8.674c-0.327,0.485-0.896,0.723-1.692,0.723
			c-0.807,0-1.333-0.171-1.6-0.504c-0.128-1.837-0.339-3.153-0.61-3.955c-0.28-0.803-1.082-1.509-2.424-2.131
			C438.292,564.99,436.253,564.681,433.512,564.681z"/>
		<path fill="#007DA4" d="M535.746,564.07c0,8.384-2.077,15.522-6.236,21.418c-2.813,4.025-6.401,7.142-10.772,9.351
			c-4.372,2.21-9.288,3.32-14.747,3.32c-8.84,0-16.295-2.954-22.363-8.845c-6.068-5.9-9.108-13.682-9.108-23.343
			c0-8.863,2.296-16.429,6.876-22.707c2.814-3.856,6.29-6.862,10.435-9.02c4.141-2.161,8.659-3.239,13.567-3.239
			c9.329,0,17.056,2.984,23.173,8.954C532.682,545.924,535.746,553.963,535.746,564.07z M502.074,534.638
			c-2.424,0-4.771,0.59-7.042,1.755c-2.276,1.167-4.387,2.877-6.337,5.14c-1.943,2.258-3.523,5.365-4.732,9.334
			c-1.214,3.96-1.82,8.428-1.82,13.397c0,9.19,2.348,16.532,7.042,22.024c4.695,5.491,10.306,8.238,16.817,8.238
			c5.89,0,10.705-2.587,14.455-7.749c3.745-5.166,5.624-12.104,5.624-20.807c0-9.779-2.283-17.447-6.829-23.001
			C514.703,537.419,508.975,534.638,502.074,534.638z"/>
		<path fill="#007DA4" d="M610.316,545.869c0-2.333-0.104-4.107-0.319-5.322c-0.212-1.208-0.72-2.165-1.521-2.859
			c-0.803-0.695-1.632-1.147-2.504-1.342c-0.867-0.194-2.328-0.388-4.393-0.583c-0.329-0.279-0.502-0.866-0.511-1.755
			c-0.025-0.892,0.151-1.517,0.511-1.873c6.707,0.143,10.421,0.213,11.146,0.213c0.943,0,4.695-0.07,11.24-0.213
			c0.261,0.356,0.388,0.967,0.388,1.844c0,0.87-0.127,1.467-0.388,1.784c-3.767,0.389-6.162,1.114-7.195,2.166
			c-1.028,1.053-1.541,3.696-1.541,7.94v48.951c0,2.224-0.772,3.339-2.31,3.339c-1.475,0-2.813-0.858-4.026-2.574l-35.095-44.04
			c-1.735-2.2-2.873-3.291-3.414-3.277c-0.538,0.021-0.806,1.643-0.806,4.881v30.441c0,2.334,0.1,4.103,0.317,5.318
			c0.209,1.212,0.714,2.17,1.522,2.864c0.796,0.695,1.636,1.142,2.504,1.336c0.863,0.195,2.328,0.402,4.391,0.631
			c0.262,0.361,0.397,0.987,0.419,1.872c0.013,0.884-0.124,1.472-0.419,1.76c-6.705-0.146-10.423-0.217-11.145-0.217
			c-0.949,0-4.695,0.07-11.239,0.217c-0.322-0.288-0.498-0.876-0.512-1.76c-0.02-0.885,0.155-1.511,0.512-1.872
			c3.763-0.388,6.161-1.12,7.194-2.187c1.029-1.066,1.541-3.723,1.541-7.963v-41.463c-0.322-1.456-1.224-2.849-2.697-4.177
			c-1.471-1.329-3.221-2.054-5.251-2.188c-0.326-0.279-0.493-0.866-0.493-1.755c0-0.892,0.167-1.517,0.493-1.873l13.597,0.194
			l34.459,44.248c0.455,0.587,0.958,1.255,1.496,2.006c0.543,0.75,0.946,1.285,1.226,1.607c0.275,0.326,0.569,0.657,0.859,0.994
			c0.298,0.347,0.54,0.58,0.739,0.707c0.194,0.129,0.356,0.194,0.493,0.194c0.451,0,0.702-1.006,0.73-3.012V545.869z"/>
		<path fill="#007DA4" d="M655.293,588.955c-0.066,0.648-0.165,1.222-0.294,1.717c-0.133,0.496,0.052,0.919,0.563,1.256
			c0.503,0.336,0.906,0.604,1.2,0.797c0.293,0.194,0.854,0.368,1.675,0.531c0.809,0.165,1.451,0.255,1.906,0.289
			c0.46,0.034,1.101,0.095,1.916,0.194c0.263,0.361,0.398,0.987,0.398,1.872c0,0.884-0.136,1.472-0.398,1.76
			c-4.976-0.146-9.258-0.217-12.858-0.217c-1.013,0-4.011,0.07-8.981,0.217c-0.328-0.288-0.493-0.876-0.493-1.76
			c0-0.885,0.165-1.511,0.493-1.872c2.55-0.194,4.563-0.721,6.033-1.562c1.476-0.849,2.817-2.703,4.025-5.563l22.831-53.599
			c1.466,0,3.318-0.668,5.544-2.01l20.715,57.218c0.387,1.199,0.877,2.167,1.446,2.901c0.573,0.737,1.361,1.281,2.362,1.637
			c0.99,0.361,1.745,0.568,2.252,0.637c0.508,0.064,1.499,0.181,2.97,0.341c0.331,0.361,0.493,0.987,0.493,1.872
			c0,0.884-0.162,1.472-0.493,1.76c-4.975-0.146-8.805-0.217-11.482-0.217c-3.831,0-8.216,0.07-13.159,0.217
			c-0.257-0.288-0.39-0.876-0.39-1.76c0-0.885,0.133-1.511,0.39-1.872c0.394,0,0.908-0.024,1.549-0.072
			c0.637-0.048,1.131-0.088,1.472-0.122c0.342-0.034,0.782-0.082,1.32-0.146c0.542-0.068,0.941-0.125,1.207-0.19
			c0.265-0.061,0.573-0.162,0.935-0.289c0.359-0.133,0.616-0.294,0.758-0.487c0.147-0.189,0.271-0.428,0.371-0.693
			c0.093-0.281,0.125-0.575,0.093-0.897s-0.112-0.707-0.24-1.16l-5.843-16.751h-21.207c-1.205,0-2.036,0.119-2.476,0.361
			c-0.442,0.237-0.794,0.677-1.059,1.327L655.293,588.955z M666.192,568.703h17.766l-9.425-27.341h-0.635l-10.259,26.019
			c-0.099,0.194-0.137,0.373-0.099,0.541c0.032,0.16,0.099,0.288,0.194,0.393c0.099,0.096,0.262,0.176,0.491,0.242
			c0.225,0.066,0.495,0.11,0.809,0.123C665.348,568.694,665.732,568.703,666.192,568.703z"/>
	</g>
	<g>
		<path fill="#007DA4" d="M520.485,400.194h34.933v-63.435c-14.834,4.117-29.826,8.831-45.063,14.388
			C514.405,367.509,517.762,383.867,520.485,400.194z"/>
		<path fill="#007DA4" d="M474.852,365.292c-22.393,9.672-45.262,21.012-68.675,34.182c-0.417,0.236-0.833,0.482-1.248,0.72h98.712
			c-3.175-13.895-6.812-27.979-11.015-42.295C486.737,360.249,480.809,362.708,474.852,365.292z"/>
		<path fill="#2CAAC3" d="M506.366,335.806c16.29-4.978,32.652-9.068,49.052-12.449V251.03
			c-23.134,3.718-46.809,9.314-71.189,17.281C492.844,290.852,500.235,313.348,506.366,335.806z"/>
		<path fill="#007DA4" d="M458.287,263.455c-7.184-16.603-15.063-33.5-23.703-50.694c-10.092,5.148-19.633,11.265-28.406,18.206
			c-25.705,20.381-44.871,47.996-52.101,79.932c17.291-10.21,34.669-19.283,52.101-27.208
			C423.487,275.828,440.858,269.089,458.287,263.455z"/>
		<path fill="#007DA4" d="M406.177,376.709c22.794-11.685,45.693-21.777,68.675-30.269c4.297-1.596,8.58-3.123,12.878-4.598
			c-3.886-12.262-8.178-24.68-12.878-37.267c-3.557-9.551-7.364-19.202-11.386-28.948c-18.682,7.021-37.766,15.432-57.289,25.4
			c-17.969,9.177-36.328,19.681-55.101,31.633c-1.088,21.174,3,43.796,13.604,67.148C378.49,391.52,392.319,383.816,406.177,376.709
			z"/>
		<path fill="#007DA4" d="M323.217,343.505l-15.525-2.411c5.599-3.975,11.176-7.825,16.777-11.566
			c6.857-52.708,37.793-98.823,81.708-125.349c6.065-3.67,12.373-6.957,18.903-9.845c-1.534-2.895-3.05-5.8-4.635-8.717
			l8.381-33.583c6.531,11.436,12.705,22.877,18.59,34.302c8.873-2.469,18.031-4.224,27.436-5.187
			c25.468-2.606,52.724,0.564,80.565,10.913v-85.359H261.923v293.491h67.908C324.398,380.997,322.321,361.925,323.217,343.505z"/>
		<path fill="#0097B6" d="M474.852,198.116c-6.369,1.463-12.651,3.285-18.784,5.447c6.729,13.82,12.983,27.623,18.784,41.416
			c1.693,4.042,3.354,8.077,4.979,12.105c25.058-6.737,50.257-11.147,75.586-13.281v-43.78
			C528.86,192.237,501.069,192.109,474.852,198.116z"/>
		<path fill="#007DA4" d="M406.177,230.967c8.773-6.941,18.314-13.058,28.406-18.206c8.641,17.194,16.52,34.091,23.703,50.694
			c-17.429,5.634-34.8,12.373-52.109,20.236c-17.431,7.925-34.81,16.997-52.101,27.208
			C361.306,278.962,380.473,251.348,406.177,230.967z M351.077,332.662c18.773-11.952,37.132-22.457,55.101-31.633
			c19.523-9.968,38.607-18.379,57.289-25.4c4.021,9.746,7.829,19.396,11.386,28.948c4.7,12.586,8.992,25.005,12.878,37.267
			c-4.298,1.475-8.581,3.001-12.878,4.598c-22.981,8.491-45.881,18.583-68.675,30.269c-13.858,7.106-27.688,14.811-41.497,23.101
			C354.077,376.458,349.988,353.836,351.077,332.662z"/>
	</g>
</g>
</svg>
